<svg version="1.1" id="Layer_1" xmlns="http://www.w3.org/2000/svg" xmlns:xlink="http://www.w3.org/1999/xlink" x="0px" y="0px"
	 width="100%" viewBox="0 0 1024 1024" enable-background="new 0 0 1024 1024" xml:space="preserve">
<path fill="#000000" opacity="1.000000" stroke="none" 
	d="
M652.811707,149.124725 
	C690.161499,171.093185 727.177979,192.905121 764.258118,214.608337 
	C767.478333,216.493149 769.026123,218.681656 769.005371,222.529648 
	C768.807556,259.179291 769.265320,295.828766 768.717651,332.480896 
	C768.414368,352.782562 768.912659,373.095367 768.958191,393.403351 
	C769.024963,423.210388 768.966003,453.017853 769.087036,482.824585 
	C769.101746,486.434875 767.804321,488.643616 764.709045,490.457397 
	C725.772827,513.273071 686.860596,536.130005 648.002991,559.079346 
	C604.841980,584.570374 561.711365,610.113403 518.674927,635.813538 
	C514.980347,638.019897 512.366699,637.971436 508.752380,635.828003 
	C461.768799,607.964600 414.696136,580.251465 367.649139,552.494995 
	C332.507233,531.762207 297.390503,510.986542 262.197601,490.340668 
	C258.834015,488.367432 258.585541,485.655579 258.587921,482.345978 
	C258.635559,415.691681 258.627777,349.037323 258.633698,282.382996 
	C258.635468,262.386627 258.729950,242.389618 258.573822,222.394531 
	C258.545227,218.734039 259.830414,216.775208 262.965851,214.930252 
	C304.450836,190.519714 345.825378,165.921616 387.271667,141.445145 
	C427.846893,117.483063 468.488739,93.633774 509.044281,69.638542 
	C512.156738,67.797012 514.609192,67.746162 517.748108,69.600281 
	C562.627014,96.109070 607.568726,122.511337 652.811707,149.124725 
M729.552185,216.036057 
	C724.559631,213.031235 719.589294,209.988876 714.571228,207.027313 
	C650.747070,169.359467 586.856934,131.802628 523.174866,93.896210 
	C516.516541,89.932884 511.089172,87.933601 504.722137,93.615135 
	C502.771759,95.355553 500.181641,96.378197 497.886963,97.733711 
	C455.735535,122.633667 413.584564,147.534348 371.433380,172.434662 
	C341.320526,190.223511 311.233490,208.056366 281.060150,225.742081 
	C277.464783,227.849457 275.996887,230.338699 276.089386,234.554840 
	C276.348755,246.379883 276.187683,258.214233 276.184845,270.044922 
	C276.168823,336.696014 276.207428,403.347290 276.018768,469.997894 
	C276.004608,475.005127 277.652618,477.775055 281.895020,480.264221 
	C312.052826,497.958801 342.053223,515.921387 372.140350,533.736816 
	C416.991638,560.294495 461.930573,586.705139 506.663849,613.459839 
	C511.854828,616.564575 515.582458,616.462341 520.641663,613.416687 
	C554.884705,592.802307 589.289307,572.455688 623.672852,552.075012 
	C664.647217,527.787659 705.638123,503.527954 746.671692,479.340881 
	C750.061523,477.342743 751.660217,474.873688 751.615723,470.902374 
	C751.470520,457.935883 750.941833,444.934418 751.654846,432.006744 
	C752.730286,412.507874 747.980591,392.703186 754.608887,373.499054 
	C753.109436,361.365967 758.118164,348.675018 751.487732,336.969910 
	C751.265808,336.578217 751.361938,335.989471 751.360229,335.492432 
	C751.288147,314.193420 751.160461,292.894318 751.177795,271.595398 
	C751.188110,258.954193 751.380554,246.312378 751.596558,233.672638 
	C751.653748,230.324051 750.475098,228.121826 747.435364,226.472107 
	C741.585693,223.297318 735.926880,219.770844 729.552185,216.036057 
z"/>
<path fill="#000000" opacity="1.000000" stroke="none" 
	d="
M182.989471,664.834961 
	C195.560760,664.865234 193.502548,663.512695 196.518936,674.828430 
	C199.173294,684.786133 202.188721,694.647522 205.038177,704.553284 
	C205.492981,706.134338 205.754181,707.799377 207.503906,709.378784 
	C210.600723,703.305359 211.485901,696.711548 213.510666,690.535950 
	C215.839417,683.433105 217.706635,676.170471 219.538940,668.917786 
	C220.216751,666.234863 221.402100,664.826477 224.256348,664.865906 
	C229.254761,664.934998 234.256027,664.949402 239.253784,664.858704 
	C242.314163,664.803162 243.299896,666.289185 243.294250,669.162109 
	C243.248322,692.492615 243.253876,715.823425 243.296921,739.153931 
	C243.302277,742.054077 242.209000,743.409546 239.177490,743.380005 
	C225.608200,743.247742 227.880569,744.695740 227.723816,732.530090 
	C227.592850,722.366028 227.684036,712.199219 227.642654,702.033813 
	C227.635406,700.255127 227.949142,698.400574 226.798050,696.294067 
	C223.784332,699.672546 223.493774,703.771851 222.443619,707.442993 
	C219.472778,717.828491 216.669617,728.269836 214.153275,738.773682 
	C213.107956,743.137085 210.420471,743.408264 206.796844,743.476379 
	C203.100494,743.545837 201.006790,742.593445 200.043793,738.665588 
	C196.797867,725.426270 193.237152,712.264038 189.778290,699.077209 
	C189.334213,697.384155 189.289001,695.477295 187.587830,694.255676 
	C185.666412,695.909485 186.399521,698.044128 186.387711,699.915100 
	C186.307739,712.580017 186.221313,725.246948 186.382370,737.910095 
	C186.434143,741.981140 185.057877,743.882996 180.894821,743.381104 
	C180.402145,743.321716 179.895920,743.374817 179.395966,743.375793 
	C171.668304,743.390198 171.663651,743.390198 171.661682,735.827637 
	C171.656219,714.829834 171.651001,693.832031 171.654160,672.834229 
	C171.655350,664.930115 171.665970,664.931030 179.500046,664.881409 
	C180.499985,664.875122 181.499832,664.852844 182.989471,664.834961 
z"/>
<path fill="#000000" opacity="1.000000" stroke="none" 
	d="
M331.977112,681.007568 
	C331.960724,678.342957 331.624603,676.109985 332.038696,674.026062 
	C332.668304,670.857605 329.818420,666.093628 335.501831,665.009949 
	C344.261688,663.339783 347.541595,664.752869 350.428162,670.751343 
	C355.915924,682.155151 361.467316,693.528625 367.041992,704.890320 
	C367.679901,706.190369 368.032288,707.743530 369.693756,708.692566 
	C371.380219,707.374146 370.839264,705.450867 370.846649,703.794800 
	C370.896240,692.629822 370.945343,681.463623 370.821228,670.299744 
	C370.782379,666.808105 371.709259,665.375000 375.615173,665.307251 
	C386.309387,665.121948 386.304230,664.902344 386.306946,675.403931 
	C386.312286,696.069031 386.219391,716.734985 386.404938,737.398438 
	C386.444885,741.846375 385.252991,744.039856 380.512085,743.385986 
	C379.040436,743.183044 377.489471,743.174805 376.021973,743.393677 
	C371.815735,744.020996 369.711456,741.928894 368.054810,738.301514 
	C363.007202,727.249451 357.714294,716.309021 352.458588,705.353027 
	C351.630890,703.627563 351.041351,701.635071 349.185699,700.597961 
	C346.509491,701.884460 347.386444,704.154724 347.370880,705.966736 
	C347.277771,716.798401 347.208893,727.632568 347.354218,738.462891 
	C347.402802,742.082947 346.203705,743.508606 342.469299,743.435913 
	C330.522797,743.203491 332.067719,744.348022 332.023743,733.497375 
	C331.953583,716.167114 331.997620,698.836365 331.977112,681.007568 
z"/>
<path fill="#000000" opacity="1.000000" stroke="none" 
	d="
M547.149536,704.000000 
	C547.123718,715.660583 546.998718,726.822083 547.115601,737.981079 
	C547.157837,742.016663 545.720154,743.941956 541.564636,743.369385 
	C541.401245,743.346863 541.225708,743.338257 541.066162,743.371948 
	C533.482971,744.971680 529.806824,741.189697 526.910095,734.515015 
	C521.565002,722.198914 515.360291,710.255920 509.484467,698.096863 
	C507.206512,699.000916 507.637482,700.632812 507.628418,702.023804 
	C507.548035,714.343933 507.373932,726.665649 507.514343,738.983582 
	C507.551392,742.231262 506.715637,743.474670 503.380737,743.411804 
	C490.837158,743.175110 492.773132,744.502991 492.715302,733.308228 
	C492.608582,712.652283 492.831757,691.993591 492.587433,671.339966 
	C492.529846,666.470642 494.251892,665.381897 498.832764,664.890808 
	C505.945099,664.128357 509.652252,666.674072 512.399109,673.209778 
	C516.712891,683.473877 521.991943,693.335266 526.962830,703.317078 
	C527.803284,705.004822 528.158630,707.192627 531.333862,708.323914 
	C531.333862,694.007568 531.333862,680.072571 531.333862,666.389832 
	C532.702881,665.904358 533.150757,665.621460 533.610535,665.600586 
	C546.970032,664.994812 547.001526,664.998718 547.113953,678.512939 
	C547.183228,686.841431 547.139160,695.170959 547.149536,704.000000 
z"/>
<path fill="#000000" opacity="1.000000" stroke="none" 
	d="
M775.342834,719.001709 
	C775.337036,725.999084 775.230957,732.498962 775.366760,738.993835 
	C775.433594,742.192078 774.239929,743.436218 770.997498,743.409302 
	C758.590759,743.306274 760.769104,744.199707 760.704895,733.488098 
	C760.580994,712.828918 760.655640,692.168579 760.665344,671.508728 
	C760.668457,664.819153 760.729248,665.255188 767.239014,664.716919 
	C773.700867,664.182495 777.132141,666.589844 779.729431,672.510925 
	C785.333679,685.286926 791.684937,697.735168 798.042053,710.965759 
	C799.683960,708.214172 799.604370,705.967590 799.605347,703.738586 
	C799.610413,692.409058 799.718262,681.078186 799.560364,669.750916 
	C799.512146,666.293274 800.717285,665.092834 804.149536,665.037048 
	C816.327454,664.839050 814.266846,664.110901 814.324036,674.372620 
	C814.440186,695.198547 814.363953,716.025452 814.357361,736.851990 
	C814.355286,743.347107 814.341064,743.348267 807.683960,743.377258 
	C806.184448,743.383789 804.663757,743.218140 803.189636,743.411987 
	C799.609802,743.882874 797.792297,742.156128 796.355896,739.031738 
	C791.349976,728.143005 786.136414,717.349121 780.947449,706.545288 
	C779.594177,703.727539 778.044006,701.004333 776.062073,697.247925 
	C774.918518,705.067871 775.512756,711.802246 775.342834,719.001709 
z"/>
<path fill="#000000" opacity="1.000000" stroke="none" 
	d="
M714.564697,727.545776 
	C716.853455,732.693115 719.890198,737.137085 721.015259,742.937256 
	C715.806824,743.754456 710.866333,743.423584 705.956604,743.204834 
	C703.701050,743.104309 703.356079,740.907043 702.646484,739.266968 
	C699.936401,733.002869 697.261719,726.723450 694.545654,720.461914 
	C694.016663,719.242432 693.439209,718.030334 692.748169,716.897705 
	C691.465881,714.795959 689.446899,714.130493 687.140625,714.562866 
	C684.612000,715.036987 684.317871,717.077759 684.305969,719.178467 
	C684.270142,725.509155 684.143982,731.842102 684.270081,738.169861 
	C684.346924,742.024048 682.780640,743.494446 678.911133,743.421997 
	C666.091431,743.181885 667.771362,744.625793 667.722229,732.708618 
	C667.637085,712.049988 667.799194,691.389832 667.611755,670.732483 
	C667.570679,666.201477 668.939453,664.373779 673.604858,664.665039 
	C682.898315,665.245178 692.267822,663.857910 701.526123,665.536194 
	C713.280945,667.667175 718.998230,674.702759 719.394775,686.681641 
	C719.705383,696.066223 718.581665,704.684998 710.079773,710.568970 
	C708.089111,711.946716 708.136414,713.878479 709.094177,715.908997 
	C710.869629,719.672913 712.623596,723.447021 714.564697,727.545776 
M684.931641,680.520325 
	C683.600769,686.447998 684.550964,692.444275 684.412842,698.407410 
	C684.383789,699.661072 685.041992,700.571594 686.210754,701.167114 
	C690.247437,703.223755 698.626770,700.997437 701.217957,697.139893 
	C703.879395,693.177673 703.214539,684.019348 699.923950,681.221619 
	C698.955078,680.397827 697.616943,679.634644 696.398254,679.548462 
	C692.778687,679.292725 689.104492,678.656555 684.931641,680.520325 
z"/>
<path fill="#000000" opacity="1.000000" stroke="none" 
	d="
M112.231491,664.752441 
	C122.021858,665.019165 131.394211,663.857666 140.641556,665.368652 
	C153.668884,667.497253 159.025040,673.331665 160.221832,686.637146 
	C161.068298,696.047729 159.407471,704.686340 150.576736,710.194519 
	C148.094864,711.742554 148.375397,713.485413 149.427719,715.693054 
	C152.866852,722.907654 156.248764,730.150085 159.588242,737.411438 
	C160.327606,739.019043 161.538742,740.589111 160.635345,742.878296 
	C156.187271,743.897888 151.543106,743.257935 146.937408,743.275330 
	C144.594788,743.284180 144.132553,741.375549 143.397171,739.671936 
	C140.296600,732.488708 137.024368,725.377808 134.025803,718.153015 
	C132.699570,714.957520 130.511169,713.969971 127.331047,714.400574 
	C123.496849,714.919678 124.475868,717.960510 124.425255,720.250244 
	C124.289032,726.412292 124.243233,732.582031 124.403214,738.742493 
	C124.488838,742.039734 123.627724,743.559875 119.935699,743.455017 
	C106.565666,743.075317 108.765747,744.959229 108.688118,732.465210 
	C108.559746,711.805237 108.636559,691.143799 108.681511,670.483093 
	C108.686638,668.125610 107.933189,665.167480 112.231491,664.752441 
M124.384521,694.115540 
	C124.595337,697.005432 123.831787,700.729187 127.861351,701.345947 
	C132.619965,702.074280 137.704254,702.211060 141.203842,698.019958 
	C144.899704,693.593750 144.399582,688.390198 142.400116,683.454102 
	C140.732788,679.338074 134.323410,677.866333 127.179672,679.432617 
	C122.478577,680.463379 124.859802,684.185486 124.450775,686.757812 
	C124.116844,688.857849 124.382111,691.053223 124.384521,694.115540 
z"/>
<path fill="#000000" opacity="1.000000" stroke="none" 
	d="
M868.992920,741.295593 
	C860.976868,745.359558 852.725708,745.221863 844.710083,743.767883 
	C833.256531,741.690308 827.944824,733.449036 827.029785,722.496216 
	C826.003967,710.217041 825.892578,697.822937 827.125305,685.581482 
	C829.046692,666.502380 842.567566,662.053345 858.872498,664.242188 
	C872.516785,666.073853 878.637146,673.950928 878.827087,687.358032 
	C878.836243,688.002319 878.930908,688.953857 878.568665,689.247131 
	C875.006897,692.130554 870.899902,690.083374 867.037903,690.375549 
	C864.781189,690.546204 864.063171,689.307739 863.534424,687.161743 
	C861.791626,680.088013 859.425354,678.062134 853.675354,677.983215 
	C847.497925,677.898438 843.794495,680.975891 843.424500,687.134644 
	C842.744812,698.448181 842.897888,709.783875 843.434570,721.100403 
	C843.640259,725.437439 845.889099,728.697998 850.197632,730.059753 
	C854.530396,731.429199 858.650269,730.643799 861.621338,727.218018 
	C864.582764,723.803406 864.160950,719.398376 863.446350,715.277100 
	C863.073120,713.124207 860.745911,713.401367 859.252441,713.554382 
	C854.416077,714.049866 853.096191,711.676575 853.569519,707.388550 
	C853.714600,706.074646 853.596069,704.723999 853.517761,703.394897 
	C853.381714,701.088196 854.455994,699.984375 856.735413,699.980103 
	C863.230347,699.967957 869.725403,699.963989 876.220276,699.933777 
	C878.687256,699.922302 879.908875,701.155212 879.988281,703.570984 
	C880.267334,712.065918 880.294128,720.565796 878.164673,728.862122 
	C876.840149,734.022705 873.965942,738.255981 868.992920,741.295593 
z"/>
<path fill="#000000" opacity="1.000000" stroke="none" 
	d="
M442.248535,668.604065 
	C448.056976,673.646667 450.329224,679.854065 450.321045,687.027405 
	C450.319275,688.576416 450.221130,690.269287 448.170380,690.321594 
	C444.678802,690.410400 441.175751,690.378601 437.688538,690.191650 
	C435.363342,690.066956 435.668793,687.848755 435.227356,686.375366 
	C433.193329,679.586365 430.595551,677.558472 424.286041,678.000793 
	C418.743835,678.389343 415.954712,681.353394 415.176819,687.874268 
	C413.830261,699.162292 413.903564,710.448669 415.296692,721.734680 
	C415.820984,725.982056 417.963470,728.793823 422.079956,730.068359 
	C426.276886,731.367859 430.245697,730.709839 433.076874,727.431274 
	C435.814362,724.261169 436.209656,720.071350 435.309509,716.070740 
	C434.721191,713.456177 432.049194,713.316223 429.931122,713.535950 
	C425.873230,713.956909 424.443237,712.224243 424.801666,708.384949 
	C424.940338,706.899536 424.834076,705.386658 424.778229,703.888611 
	C424.678009,701.198486 425.868378,699.896362 428.632568,699.912537 
	C434.963959,699.949646 441.295929,699.906372 447.627533,699.869141 
	C450.069519,699.854797 451.392822,700.913025 451.311371,703.458557 
	C451.077728,710.762878 451.921600,718.079834 450.451813,725.372437 
	C448.239319,736.350342 443.234772,741.765503 432.337463,743.907288 
	C427.575348,744.843262 422.696991,744.737183 417.912109,744.007019 
	C407.427551,742.406860 401.474762,736.212341 399.503632,725.793457 
	C396.902100,712.042175 397.236542,698.234192 399.138184,684.539368 
	C401.441162,667.954407 411.872986,662.626465 429.869568,664.033997 
	C434.156433,664.369324 438.357849,665.724365 442.248535,668.604065 
z"/>
<path fill="#000000" opacity="1.000000" stroke="none" 
	d="
M633.789917,696.481323 
	C639.045105,696.582397 643.873413,696.715820 648.697754,696.627380 
	C651.744812,696.571533 653.185425,697.483765 653.243835,700.880859 
	C653.406189,710.315552 653.543030,710.313049 644.196228,710.343750 
	C643.863281,710.344849 643.530396,710.347961 643.197449,710.349670 
	C629.637634,710.419067 629.727417,710.415405 630.276855,723.924927 
	C630.416199,727.351318 631.834900,728.777466 635.095520,728.768372 
	C640.755127,728.752625 646.420410,728.915466 652.072327,728.706482 
	C655.787476,728.569031 657.521545,729.571594 657.420410,733.710754 
	C657.140991,745.135864 658.200439,743.243591 647.848999,743.357727 
	C638.195251,743.464172 628.537537,743.267029 618.885315,743.427979 
	C615.209534,743.489319 613.849304,742.088379 613.864502,738.461548 
	C613.959595,715.824829 613.960327,693.187439 613.925293,670.550476 
	C613.919922,667.074890 614.628723,664.841187 618.873230,664.914795 
	C629.356628,665.096558 639.845947,664.906860 650.331665,665.002258 
	C656.252563,665.056091 656.169861,665.374634 656.389709,673.027039 
	C656.522034,677.633606 655.282654,679.769897 650.260925,679.393921 
	C645.297363,679.022217 640.280090,679.395264 635.286499,679.385193 
	C631.790222,679.378113 630.044983,680.864380 630.287964,684.545837 
	C630.462952,687.198059 630.370544,689.870972 630.329285,692.533569 
	C630.296021,694.682434 631.210510,696.013733 633.789917,696.481323 
z"/>
<path fill="#000000" opacity="1.000000" stroke="none" 
	d="
M293.237579,665.057251 
	C300.869446,665.039734 308.031342,665.115967 315.189667,664.989502 
	C319.301361,664.916992 321.307617,666.006042 320.716797,670.785156 
	C319.667175,679.276123 319.925964,679.310913 311.325317,679.344543 
	C307.994690,679.357544 304.644409,679.585327 301.337982,679.304443 
	C296.516052,678.894836 294.662140,681.292786 294.554443,685.679871 
	C294.505493,687.674438 294.503387,689.674622 294.594666,691.666992 
	C294.751404,695.088196 296.485748,696.760742 300.029602,696.664673 
	C304.189575,696.551941 308.361115,696.792847 312.516907,696.621155 
	C315.951691,696.479187 317.469391,697.863037 317.238037,701.284973 
	C317.148407,702.610840 317.138702,703.956543 317.254028,705.279114 
	C317.599304,709.238159 315.746796,710.603394 311.926270,710.398804 
	C307.942230,710.185242 303.935120,710.349976 299.939545,710.425720 
	C297.875397,710.464783 295.728363,710.799561 295.153076,713.184204 
	C294.086884,717.603638 294.251343,722.098450 295.260010,726.502502 
	C295.781982,728.781494 297.897461,728.745911 299.747345,728.751587 
	C305.409210,728.769165 311.077942,728.908813 316.730896,728.678650 
	C320.674927,728.518066 322.257751,730.192871 322.023987,733.960693 
	C322.003448,734.291870 322.035248,734.626404 322.043793,734.959351 
	C322.256287,743.234131 322.133942,743.372192 314.014923,743.375977 
	C303.856415,743.380676 293.696136,743.257690 283.540344,743.420471 
	C279.911530,743.478699 278.559753,742.274475 278.580048,738.552002 
	C278.705261,715.571045 278.705536,692.588989 278.603699,669.607910 
	C278.587952,666.052307 279.810455,664.910217 283.314697,665.224915 
	C286.435242,665.505066 289.613403,665.144043 293.237579,665.057251 
z"/>
<path fill="#000000" opacity="1.000000" stroke="none" 
	d="
M587.116455,728.751770 
	C591.429260,728.745972 595.265869,728.873535 599.088928,728.701294 
	C602.768494,728.535461 604.049866,730.219788 604.204590,733.740540 
	C604.627319,743.364319 604.703064,743.383972 594.943298,743.380981 
	C585.116699,743.377991 575.288147,743.253052 565.464478,743.419678 
	C561.777588,743.482239 560.566711,742.158569 560.584290,738.487610 
	C560.693604,715.675598 560.665588,692.862488 560.552002,670.050354 
	C560.534302,666.489807 561.615051,664.942017 565.393311,664.997803 
	C575.882629,665.152649 586.376648,665.084839 596.867615,664.980896 
	C600.758057,664.942322 602.895813,666.245667 602.377197,670.507019 
	C602.197449,671.984253 602.257263,673.507751 602.362488,674.999207 
	C602.590698,678.235107 601.111877,679.463623 597.932739,679.390015 
	C592.273010,679.258972 586.606384,679.435791 580.946106,679.316895 
	C577.589355,679.246338 576.313660,680.486206 576.255737,684.003967 
	C576.047363,696.659851 575.926270,696.656982 588.527527,696.641357 
	C591.637451,696.637512 594.747437,696.640869 597.511414,696.640869 
	C597.984253,697.632202 598.219482,697.915039 598.249146,698.217957 
	C599.438416,710.381348 599.435852,710.328186 587.368774,710.376160 
	C574.844299,710.426025 576.416687,708.959351 576.358215,721.160828 
	C576.322632,728.596008 576.544800,728.729553 587.116455,728.751770 
z"/>
<path fill="#000000" opacity="1.000000" stroke="none" 
	d="
M119.438583,817.142944 
	C117.608109,808.051392 120.196190,800.920898 127.333611,795.696289 
	C130.003311,793.742126 130.448883,792.088989 128.872574,789.071106 
	C124.747375,781.173523 125.896484,773.184631 131.380463,768.534302 
	C137.051620,763.725159 148.734909,763.421753 154.861145,767.924500 
	C162.800247,773.759705 162.026520,785.845886 153.179565,792.175842 
	C150.490601,794.099792 148.401596,795.597290 150.995483,799.267578 
	C155.101883,805.078125 156.548508,805.120605 160.023163,798.831726 
	C162.036453,795.187744 165.720093,794.512939 173.055008,796.622009 
	C171.689758,801.437378 169.427185,805.875793 166.872528,810.074707 
	C164.406281,814.128357 164.903290,817.412109 167.882828,820.802002 
	C170.391708,823.656433 172.985733,826.482361 175.122421,830.842468 
	C169.326706,831.200989 164.016052,832.711182 159.054886,829.772766 
	C157.126358,828.630615 155.829453,828.750916 154.062943,829.604919 
	C146.972046,833.033081 139.557663,833.103088 132.163635,831.026855 
	C125.373032,829.120056 121.139160,824.488281 119.438583,817.142944 
M145.530914,811.973083 
	C144.215637,810.276428 143.018158,808.468628 141.551987,806.914246 
	C140.079590,805.353210 139.407684,802.056091 136.549316,803.022461 
	C133.906738,803.915894 132.910080,806.771912 132.473557,809.419128 
	C132.100677,811.680359 131.996674,814.037964 132.952087,816.252258 
	C134.525269,819.898499 137.775055,821.126343 141.290985,821.529846 
	C143.982468,821.838806 146.800217,821.182068 148.214294,818.625610 
	C149.636688,816.054016 146.995270,814.492859 145.530914,811.973083 
M140.581802,784.560059 
	C141.920670,786.876343 143.548187,786.903381 145.359528,785.129944 
	C147.555817,782.979553 149.494934,780.542236 148.106079,777.331421 
	C147.108643,775.025513 144.905640,774.025391 142.328857,774.692749 
	C139.825150,775.341125 138.989319,777.274353 139.224655,779.626648 
	C139.369049,781.069946 139.920395,782.472473 140.581802,784.560059 
z"/>
<path fill="#000000" opacity="1.000000" stroke="none" 
	d="
M728.481323,821.404724 
	C726.627014,817.446838 724.943787,813.824402 723.232605,810.215271 
	C722.274536,808.194702 720.742249,807.090637 718.425781,807.542847 
	C715.977356,808.020752 715.367798,809.818726 715.366516,812.014648 
	C715.363708,816.847656 715.178772,821.688232 715.394470,826.511169 
	C715.562744,830.273804 714.003479,831.724426 710.398193,831.314453 
	C710.069092,831.277039 709.732117,831.307861 709.398804,831.309692 
	C701.873901,831.350830 701.774048,831.276245 701.758484,823.925598 
	C701.728882,809.927124 701.726196,795.928711 701.715698,781.930237 
	C701.712708,777.930542 701.784851,773.929626 701.702759,769.931641 
	C701.642944,767.018494 702.839783,765.655090 705.842590,765.685852 
	C713.507874,765.764343 721.187317,765.436157 728.837341,765.787720 
	C741.060791,766.349426 747.411926,774.657715 746.663391,788.652893 
	C746.329651,794.892029 744.551025,800.506165 738.837463,804.001221 
	C736.100647,805.675476 736.630676,807.823730 737.742981,810.042358 
	C740.279785,815.102661 742.931458,820.105347 745.480469,825.159729 
	C746.284302,826.753601 747.588989,828.220886 747.147949,830.227295 
	C737.972717,833.824341 733.532715,831.783325 728.481323,821.404724 
M715.349609,787.450684 
	C715.387451,795.431030 715.761414,795.816650 723.321045,795.669739 
	C729.627808,795.547241 732.683960,792.750549 732.625427,787.155273 
	C732.557068,780.621887 729.500305,778.095520 721.734863,778.153992 
	C715.876892,778.198181 715.389160,778.839478 715.349609,787.450684 
z"/>
<path fill="#000000" opacity="1.000000" stroke="none" 
	d="
M606.504211,854.324097 
	C608.908386,854.072693 610.901611,854.027710 612.893066,853.941589 
	C616.636658,853.779724 618.834045,855.320984 620.553101,858.905396 
	C624.576965,867.295532 629.194580,875.402222 633.625366,883.594727 
	C634.388245,885.005188 635.046753,886.629883 636.886780,887.132263 
	C639.287720,885.881531 638.616516,883.661011 638.633667,881.802185 
	C638.704529,874.144104 638.920044,866.472107 638.554932,858.830383 
	C638.297607,853.444397 641.678162,853.974915 645.044739,853.904053 
	C648.544128,853.830505 651.518799,853.660522 651.443359,858.888367 
	C651.186218,876.700134 651.245056,894.518738 651.415222,912.332520 
	C651.453735,916.359375 649.905273,917.197571 646.165344,917.499268 
	C640.567017,917.950867 637.287109,916.118713 634.906311,910.937805 
	C631.228821,902.935120 626.859741,895.248413 622.723511,887.459778 
	C621.811523,885.742493 621.296936,883.678223 619.246216,882.702576 
	C616.687195,883.417114 617.422241,885.571899 617.405396,887.223755 
	C617.320496,895.547852 617.146545,903.880005 617.423767,912.195312 
	C617.569885,916.580200 615.695129,917.681580 611.794617,917.387573 
	C608.411133,917.132568 604.668762,918.306091 604.727783,912.541016 
	C604.912048,894.561646 604.767578,876.579041 604.770813,858.597656 
	C604.771057,857.117615 604.663086,855.552551 606.504211,854.324097 
z"/>
<path fill="#000000" opacity="1.000000" stroke="none" 
	d="
M283.167999,766.331543 
	C296.793213,768.467773 299.798370,780.937683 297.822235,792.887207 
	C297.099609,797.256897 295.320801,801.283997 291.154663,803.531372 
	C288.000854,805.232666 288.063171,807.372620 289.543060,810.138000 
	C292.056702,814.835205 294.464417,819.589539 296.883331,824.336853 
	C297.846527,826.227173 299.047180,828.062500 298.937347,830.580444 
	C294.766174,831.903870 290.636841,831.233704 286.561279,831.118286 
	C284.542389,831.061096 283.982269,829.236023 283.278381,827.750183 
	C280.711853,822.332397 278.203339,816.887085 275.621674,811.476624 
	C274.521698,809.171326 273.308472,806.787659 270.084351,807.599243 
	C267.038635,808.365845 267.317932,810.957764 267.303589,813.283447 
	C267.276855,817.615967 267.118805,821.958679 267.355408,826.278564 
	C267.575409,830.295166 265.830750,831.729553 262.035828,831.330505 
	C260.715332,831.191650 259.365265,831.175110 258.040405,831.268433 
	C254.811386,831.495911 253.615738,830.020508 253.627792,826.843140 
	C253.699814,807.846008 253.679535,788.848511 253.649826,769.851135 
	C253.645844,767.296326 254.380493,765.664612 257.304596,765.732849 
	C265.787415,765.931030 274.288483,765.130188 283.167999,766.331543 
M282.733521,780.764893 
	C279.043335,776.993652 274.004456,777.319580 270.068420,778.620911 
	C264.497894,780.462585 268.125580,786.118469 267.413818,790.025452 
	C267.039337,792.080933 266.518433,795.268982 269.973846,795.491089 
	C274.192230,795.762268 278.949280,796.919128 282.208008,793.122498 
	C285.182556,789.657043 285.000122,785.477173 282.733521,780.764893 
z"/>
<path fill="#000000" opacity="1.000000" stroke="none" 
	d="
M380.688965,853.846680 
	C383.456360,854.162720 385.764343,854.427673 388.058716,854.781128 
	C398.545074,856.396912 404.319061,862.786804 405.953979,876.149597 
	C406.875519,883.681763 407.052399,891.394714 405.412994,898.975830 
	C402.953033,910.351624 395.855499,916.710938 384.311462,917.268555 
	C377.676208,917.589050 371.012146,917.261353 364.364380,917.393860 
	C360.850494,917.463928 359.733704,915.813232 359.744873,912.524170 
	C359.805878,894.569214 359.797119,876.613831 359.721619,858.658875 
	C359.709290,855.723877 360.806671,854.447021 363.786102,854.405823 
	C369.266724,854.330139 374.744385,854.038208 380.688965,853.846680 
M373.353790,879.584351 
	C373.362915,886.080017 373.310333,892.576599 373.407440,899.070984 
	C373.455505,902.283264 374.357330,905.011292 378.206268,905.562988 
	C384.366730,906.445923 390.049988,902.906067 391.547638,896.906860 
	C393.476959,889.178467 393.119812,881.361206 391.550812,873.646606 
	C390.381500,867.897400 385.277069,865.239258 377.708557,866.126587 
	C371.692169,866.831970 374.118896,871.792114 373.420197,875.125549 
	C373.185699,876.244202 373.366669,877.449829 373.353790,879.584351 
z"/>
<path fill="#000000" opacity="1.000000" stroke="none" 
	d="
M364.460632,811.701172 
	C364.339050,798.646362 364.174103,786.003418 364.004913,773.360535 
	C363.907379,766.076721 364.131683,765.775574 369.763306,765.733887 
	C377.329865,765.677979 377.332550,765.677979 377.346375,772.975220 
	C377.354889,777.473389 377.441376,781.973816 377.328857,786.469055 
	C377.241058,789.976257 378.562897,791.803284 382.281525,791.659607 
	C385.608795,791.531067 388.945618,791.562012 392.276093,791.628052 
	C396.127686,791.704407 397.671082,789.708069 397.647644,786.060669 
	C397.615540,781.062988 397.861389,776.053528 397.593994,771.070312 
	C397.366638,766.833130 399.149994,765.302917 403.155853,765.716858 
	C404.310516,765.836243 405.489777,765.812988 406.651733,765.747803 
	C409.741882,765.574585 411.230316,766.805542 411.215668,770.088928 
	C411.131012,789.080078 411.137024,808.071655 411.143646,827.063110 
	C411.144623,829.921875 410.005371,831.452759 406.974701,831.295044 
	C405.313385,831.208557 403.638855,831.204346 401.978699,831.304016 
	C398.685577,831.501587 397.587860,829.854126 397.642853,826.759949 
	C397.743530,821.097534 397.519501,815.427551 397.695465,809.768982 
	C397.812653,806.002747 396.513031,804.332336 392.544067,804.317078 
	C374.539490,804.247864 377.574890,803.959656 377.351196,818.707397 
	C377.320892,820.706177 377.344421,822.705688 377.333649,824.704895 
	C377.298035,831.306030 377.296387,831.306030 370.704163,831.280640 
	C364.209229,831.255615 363.940613,830.985352 364.097168,824.563293 
	C364.198334,820.413147 364.309052,816.263184 364.460632,811.701172 
z"/>
<path fill="#000000" opacity="1.000000" stroke="none" 
	d="
M589.197998,863.177246 
	C589.498474,864.013672 589.712341,864.470032 589.842529,864.949036 
	C590.613403,867.786621 592.839233,871.181519 590.584229,873.438782 
	C588.198853,875.826660 584.250854,874.231445 580.984436,874.239929 
	C578.652466,874.245972 578.663696,872.197632 578.256653,870.672241 
	C576.979248,865.884277 573.896912,863.989685 569.007324,864.251587 
	C564.199036,864.509216 561.561890,867.050842 560.947144,871.536072 
	C559.700500,880.632446 559.932678,889.806763 560.798462,898.897034 
	C561.197083,903.081604 563.903992,906.203735 568.637268,906.676208 
	C573.225708,907.134155 576.322021,905.302002 577.922302,900.902527 
	C579.573486,896.362915 578.127075,893.504517 573.281738,893.518433 
	C567.797546,893.534180 568.898254,889.990051 568.632751,886.775085 
	C568.313660,882.911316 570.262146,881.824524 573.685303,881.880920 
	C578.344238,881.957642 583.006165,881.877136 587.666565,881.836792 
	C590.330811,881.813782 592.252441,882.571472 592.254211,885.716858 
	C592.258423,893.202332 592.360657,900.671021 589.449402,907.814453 
	C588.061462,911.220032 585.995422,913.821106 582.682312,915.439941 
	C574.592590,919.392883 566.317749,919.549072 558.042114,916.304321 
	C552.391174,914.088684 548.762756,909.768921 547.688843,903.787109 
	C545.621582,892.273071 545.084351,880.656311 546.932129,869.064148 
	C548.378906,859.987793 553.736267,854.801270 562.973999,853.133301 
	C574.690552,851.017578 584.070618,854.238037 589.197998,863.177246 
z"/>
<path fill="#000000" opacity="1.000000" stroke="none" 
	d="
M646.278687,765.876160 
	C658.209167,765.714233 657.308044,764.383301 657.329529,776.009155 
	C657.350159,787.166992 657.236511,798.326355 657.394043,809.482056 
	C657.509644,817.668640 663.556091,822.000549 671.219299,819.718140 
	C675.970093,818.303101 677.664551,814.877319 677.664978,810.243835 
	C677.666199,797.254150 677.906982,784.259033 677.587402,771.277466 
	C677.460693,766.128479 679.923706,765.601318 683.988037,765.674316 
	C687.883484,765.744202 691.376831,765.410583 691.160339,771.088562 
	C690.615356,785.387146 692.194153,799.755371 690.558167,813.993713 
	C689.219543,825.644897 685.192871,829.312561 673.679016,831.751587 
	C668.197998,832.912598 662.721069,832.633362 657.387146,831.067078 
	C650.078979,828.921021 645.879761,823.623169 644.804199,816.364502 
	C642.474731,800.643677 644.052063,784.783386 643.758179,768.985840 
	C643.731506,767.551880 644.270935,766.378906 646.278687,765.876160 
z"/>
<path fill="#000000" opacity="1.000000" stroke="none" 
	d="
M231.033478,781.145020 
	C236.091293,797.704346 241.010559,813.888611 246.003952,830.316711 
	C241.606537,832.034607 237.632324,831.310730 233.768524,831.078552 
	C230.991119,830.911743 231.103271,828.090088 230.306854,826.174011 
	C229.208771,823.532104 229.582336,819.731934 225.838898,819.015381 
	C220.786163,818.048218 215.570892,817.384949 210.651321,819.497131 
	C208.032043,820.621643 207.972855,823.673401 207.552277,826.010925 
	C206.832886,830.009277 205.000229,831.923889 200.824051,831.320312 
	C199.518082,831.131592 198.155014,831.185303 196.832047,831.295471 
	C192.893524,831.623779 191.857452,830.214905 193.033981,826.308289 
	C198.545624,808.007019 203.966003,789.676086 209.144165,771.278381 
	C210.363678,766.945618 212.498123,765.088928 216.907608,765.711914 
	C218.049622,765.873230 219.268478,765.894043 220.396378,765.682556 
	C225.306778,764.761658 227.292328,767.351501 228.230072,771.698486 
	C228.892868,774.770996 229.991089,777.749573 231.033478,781.145020 
M213.105652,804.320984 
	C214.689087,807.986816 217.840469,806.402832 220.414520,806.354858 
	C221.930603,806.326538 223.562012,805.344299 223.517761,803.639893 
	C223.364487,797.734192 221.964172,792.129272 218.504608,786.875488 
	C215.678497,792.238708 214.161072,797.840454 213.105652,804.320984 
z"/>
<path fill="#000000" opacity="1.000000" stroke="none" 
	d="
M808.448547,825.875366 
	C808.984070,827.706360 809.604065,829.117371 808.547974,830.781494 
	C805.118042,831.800354 801.458862,831.317932 797.841858,831.195068 
	C794.919922,831.095886 794.781860,828.493591 794.191040,826.512268 
	C791.772461,818.401428 791.807983,818.385071 783.258728,818.370056 
	C781.261169,818.366516 779.259888,818.351440 777.266724,818.459351 
	C774.499207,818.609070 772.691284,819.877625 771.853943,822.725281 
	C771.036133,825.506836 771.556213,828.843567 768.904236,830.918091 
	C767.909119,831.696594 760.048889,831.354919 756.177734,830.538635 
	C756.656006,824.109741 759.071899,818.089233 760.814209,811.975159 
	C764.821838,797.910767 769.366028,783.999756 773.433777,769.951660 
	C774.350464,766.785645 775.829529,765.599670 779.007019,765.681885 
	C791.862122,766.014648 789.456116,763.773010 793.275146,775.877380 
	C798.473083,792.352600 803.353149,808.928223 808.448547,825.875366 
M778.714783,806.109314 
	C781.914124,806.213623 786.776672,808.669312 787.308411,803.681458 
	C787.957825,797.588806 785.097961,791.725220 782.532104,785.960449 
	C779.161072,791.566711 777.785828,797.603027 776.782471,803.733887 
	C776.686401,804.320923 777.607605,805.074402 778.714783,806.109314 
z"/>
<path fill="#000000" opacity="1.000000" stroke="none" 
	d="
M541.069702,817.430908 
	C539.078064,805.140198 538.794495,793.198669 540.741028,781.318420 
	C542.173035,772.578491 547.239502,767.095154 556.312561,765.460388 
	C561.641846,764.500122 566.814026,764.419067 572.103333,765.566895 
	C582.516968,767.826721 585.728271,774.868652 586.321777,784.492676 
	C586.490295,787.225952 585.296753,788.433289 582.516846,788.370850 
	C578.175964,788.273254 573.680115,789.537781 572.851929,782.559326 
	C572.288635,777.813538 567.661377,776.241394 563.205261,776.528381 
	C558.966064,776.801392 555.241882,778.772827 554.472778,783.368408 
	C552.848206,793.075989 552.477783,802.876099 554.378601,812.598145 
	C555.445862,818.056396 558.631165,820.162415 564.477173,819.934143 
	C569.983276,819.719116 572.604980,817.443054 573.644714,811.974976 
	C574.462646,807.673462 577.562805,806.366089 584.501465,807.584839 
	C588.870728,808.352295 586.783081,811.475037 586.631470,813.864624 
	C585.595520,830.188416 571.718140,833.916382 557.534302,831.873291 
	C549.205566,830.673645 543.564636,826.089050 541.069702,817.430908 
z"/>
<path fill="#000000" opacity="1.000000" stroke="none" 
	d="
M499.915100,855.901611 
	C504.261566,859.136841 505.572540,863.558289 506.474060,868.207092 
	C506.972717,870.778442 505.954742,871.970215 503.355682,872.027283 
	C498.945312,872.124023 494.437378,873.124268 492.456726,867.114685 
	C491.439178,864.027283 488.236542,862.950378 484.942688,863.703979 
	C482.075043,864.360046 479.601654,865.652893 478.960114,868.963196 
	C478.304718,872.345154 480.406189,874.320740 482.744507,875.963440 
	C487.169037,879.071655 492.655029,879.734375 497.449615,882.067139 
	C507.020508,886.723755 510.536774,892.712219 509.226868,902.692139 
	C508.077789,911.446899 503.023285,916.572205 492.784454,917.971191 
	C484.629395,919.085388 476.384003,919.066772 470.060486,912.222168 
	C467.229004,909.157349 465.780304,905.540466 465.686584,901.382935 
	C465.635864,899.133179 465.672943,896.533142 468.795166,896.899902 
	C472.023102,897.279175 476.710266,894.319519 478.117126,899.670227 
	C479.530548,905.045959 482.827789,906.871033 487.968811,906.743958 
	C492.010101,906.643982 494.722778,904.867676 495.549957,900.907227 
	C496.392670,896.872314 494.362427,894.041260 490.776001,892.575012 
	C486.472443,890.815491 481.939240,889.618713 477.630707,887.869934 
	C471.043121,885.196045 466.316101,880.786804 465.828217,873.195923 
	C465.405212,866.614319 466.339081,860.187195 472.461334,856.460205 
	C481.197815,851.141785 490.411987,851.071167 499.915100,855.901611 
z"/>
<path fill="#000000" opacity="1.000000" stroke="none" 
	d="
M350.286804,771.855835 
	C351.945190,774.236267 352.849396,776.507446 353.454651,778.975403 
	C355.599609,787.721191 354.668121,788.812378 345.703979,788.414917 
	C343.123596,788.300476 341.977356,787.442688 341.264252,784.888367 
	C339.507568,778.595947 335.299408,775.706909 329.732147,776.445923 
	C324.457947,777.146118 321.548248,780.891296 321.398529,787.695251 
	C321.244781,794.682068 321.217377,801.678528 321.397736,808.664001 
	C321.615631,817.104370 326.265961,821.043823 334.257355,819.773804 
	C340.700623,818.749695 341.067535,813.358582 342.124298,808.546509 
	C342.426300,808.329041 342.706085,807.954407 342.957092,807.972839 
	C346.704346,808.247681 351.325104,805.321228 354.006287,809.141907 
	C356.600708,812.838928 351.981049,824.537842 347.461304,827.964111 
	C339.829620,833.749329 323.475647,833.868347 315.724792,828.197083 
	C311.913788,825.408691 309.508392,821.614075 308.750488,817.047302 
	C306.833923,805.498718 307.139130,793.860779 308.355865,782.282593 
	C309.424713,772.111572 315.669312,766.616028 325.566345,765.181274 
	C334.583191,763.874084 343.215057,764.376648 350.286804,771.855835 
z"/>
<path fill="#000000" opacity="1.000000" stroke="none" 
	d="
M518.049744,818.668579 
	C520.537720,818.669250 522.537048,818.661316 524.536438,818.669556 
	C531.356262,818.697571 531.275146,818.787598 531.353149,825.705200 
	C531.397461,829.642273 530.253540,831.471130 525.960083,831.363525 
	C516.635681,831.129822 507.299469,831.176025 497.972321,831.344299 
	C494.116089,831.413879 492.682983,830.045471 492.713898,826.112244 
	C492.857910,807.786255 492.855988,789.458008 492.721222,771.131897 
	C492.690948,767.014709 494.183624,765.547180 498.293884,765.649902 
	C507.285461,765.874695 516.291138,765.911682 525.281128,765.663879 
	C529.931458,765.535706 530.336243,768.000671 530.253296,771.614990 
	C530.171265,775.181885 530.288391,778.441345 525.229858,778.231628 
	C520.905640,778.052490 516.566711,778.134521 512.236511,778.216736 
	C507.181793,778.312622 506.553284,779.436890 506.312714,785.755493 
	C506.152649,789.959656 507.440643,792.027100 511.929901,791.750305 
	C515.581421,791.525208 519.257996,791.701843 522.923462,791.709900 
	C528.811646,791.722778 526.155090,796.359131 526.786011,799.091064 
	C527.449524,801.963806 526.083191,803.460510 522.996155,803.388428 
	C519.333130,803.302856 515.665161,803.448425 512.000671,803.397888 
	C508.236877,803.345947 506.497986,805.232971 506.443420,808.883179 
	C506.421021,810.382385 506.500397,811.891907 506.352722,813.378784 
	C505.964691,817.286011 507.710236,818.924988 511.564545,818.676331 
	C513.555298,818.547913 515.561768,818.662537 518.049744,818.668579 
z"/>
<path fill="#000000" opacity="1.000000" stroke="none" 
	d="
M418.847290,856.394897 
	C419.896759,853.835632 421.845459,853.984253 423.649506,853.974060 
	C432.470551,853.924377 441.298920,854.132568 450.110687,853.835205 
	C456.034180,853.635254 455.164948,857.484985 455.347046,861.148743 
	C455.561829,865.469788 453.330353,866.022156 449.704987,865.731384 
	C445.744568,865.413696 441.736115,865.731506 437.749329,865.695129 
	C433.396576,865.655396 432.031311,867.904724 432.209229,872.018616 
	C432.368408,875.699768 432.052185,879.220642 437.403717,878.953491 
	C441.056396,878.771240 444.724915,878.902710 448.386353,878.900757 
	C452.840271,878.898315 452.105530,882.175842 452.207092,884.938293 
	C452.312439,887.802917 452.169952,890.402832 448.217926,890.315186 
	C444.724060,890.237610 441.223175,890.411255 437.732086,890.286804 
	C433.961853,890.152344 432.351166,891.789978 432.184357,895.586853 
	C431.788544,904.594604 432.935516,905.794189 441.900879,905.215027 
	C444.377869,905.054993 446.881470,905.346375 449.365234,905.244568 
	C456.162109,904.966248 456.226166,905.186279 456.407837,911.930420 
	C456.517395,915.998596 455.194611,917.549255 451.004456,917.433899 
	C442.188507,917.191040 433.352722,917.134705 424.541809,917.458435 
	C419.742889,917.634766 418.607208,915.622498 418.647522,911.281738 
	C418.816101,893.138916 418.746979,874.993958 418.847290,856.394897 
z"/>
<path fill="#000000" opacity="1.000000" stroke="none" 
	d="
M747.333740,737.892029 
	C747.890625,742.419739 745.930237,743.564453 742.145203,743.428955 
	C729.113708,742.962646 731.494019,745.506897 731.174255,732.653870 
	C730.661438,712.039124 731.145996,691.401245 730.975159,670.775024 
	C730.941772,666.744385 732.131104,665.277161 736.235840,665.040527 
	C747.357605,664.399292 747.349915,664.222900 747.348694,675.504761 
	C747.346375,696.137512 747.340759,716.770264 747.333740,737.892029 
z"/>
<path fill="#000000" opacity="1.000000" stroke="none" 
	d="
M457.395203,795.583496 
	C457.406860,791.259033 457.433960,787.273315 457.372375,783.289001 
	C457.320770,779.948792 455.940460,777.880493 452.207733,778.236023 
	C451.550049,778.298584 450.878906,778.217773 450.213928,778.206116 
	C442.884369,778.077393 440.807556,775.202576 442.721252,768.054443 
	C443.146881,766.464600 444.057190,765.813110 445.518219,765.810425 
	C457.820953,765.787598 470.126434,765.650513 482.425262,765.871277 
	C487.109528,765.955322 485.739624,769.979309 485.868469,772.726746 
	C485.995392,775.433777 486.031525,777.954651 482.001434,778.246948 
	C470.969879,779.047363 471.009399,779.187378 471.049316,790.314392 
	C471.091644,802.119446 470.907959,813.928162 471.160919,825.728088 
	C471.256165,830.169250 469.672150,831.489563 465.369446,831.392761 
	C457.127930,831.207214 457.247253,831.419556 457.367188,823.282593 
	C457.501587,814.164673 457.381531,805.042969 457.395203,795.583496 
z"/>
<path fill="#000000" opacity="1.000000" stroke="none" 
	d="
M630.842285,765.711426 
	C637.466431,765.163147 636.040527,769.609192 636.290466,773.087219 
	C636.576416,777.065735 634.749329,778.302979 630.957031,778.246704 
	C620.479614,778.091003 621.367371,777.631592 621.352295,788.089966 
	C621.334290,800.586548 621.201660,813.085693 621.426025,825.578186 
	C621.502441,829.832336 620.348206,831.521545 615.822937,831.384766 
	C607.666870,831.138245 607.652710,831.384827 607.646301,823.180237 
	C607.636475,810.517212 607.655396,797.854187 607.624817,785.191223 
	C607.609680,778.900330 606.997314,778.312988 600.810242,778.231506 
	C599.977295,778.220520 599.134705,778.303528 598.312805,778.206177 
	C596.277161,777.964905 593.506836,779.121155 592.541138,776.527649 
	C591.436890,773.562317 591.407104,770.249268 592.514771,767.228455 
	C593.328918,765.008240 595.647888,765.752991 597.369995,765.743164 
	C608.366455,765.680603 619.363403,765.709351 630.842285,765.711426 
z"/>
<path fill="#000000" opacity="1.000000" stroke="none" 
	d="
M463.630280,679.009644 
	C463.630707,678.179321 463.629089,677.846497 463.629761,677.513611 
	C463.652985,665.831726 463.660034,665.923462 474.942322,665.060425 
	C478.284851,664.804749 479.412384,665.981567 479.374969,669.209351 
	C479.270752,678.195251 479.347076,687.183105 479.347900,696.170227 
	C479.349152,709.983765 479.164734,723.801025 479.446777,737.608765 
	C479.543030,742.320374 477.886963,743.589783 473.424896,743.447205 
	C462.450623,743.096558 463.698303,744.496643 463.658051,733.929016 
	C463.588989,715.788635 463.632843,697.647766 463.630280,679.009644 
z"/>
<path fill="#000000" opacity="1.000000" stroke="none" 
	d="
M850.732544,818.707336 
	C856.679626,820.706665 853.704041,825.226257 853.860535,828.554321 
	C854.023499,832.020935 850.731750,831.268860 848.557861,831.286072 
	C839.578430,831.356995 830.596619,831.216248 821.618774,831.356079 
	C818.076111,831.411255 816.570374,830.275574 816.597961,826.503296 
	C816.734192,807.878906 816.757141,789.252258 816.595581,770.628296 
	C816.559692,766.489197 818.340454,765.632385 821.996948,765.656860 
	C830.291931,765.712463 830.302002,765.573608 830.307495,773.692444 
	C830.316345,786.663513 830.468811,799.637573 830.228333,812.604126 
	C830.143005,817.206299 831.774414,818.928345 836.294495,818.702637 
	C840.938660,818.470703 845.604370,818.670349 850.732544,818.707336 
z"/>
<path fill="#000000" opacity="1.000000" stroke="none" 
	d="
M534.324341,897.999390 
	C534.317932,903.326721 534.212708,908.156616 534.332642,912.980896 
	C534.412842,916.206787 533.027527,917.580627 529.859497,917.349487 
	C528.867004,917.277039 527.849365,917.260254 526.866638,917.392090 
	C522.130737,918.027649 520.495667,916.126587 520.565430,911.272400 
	C520.814209,893.963440 520.904175,876.644043 520.550903,859.338867 
	C520.419495,852.901672 524.362427,854.223022 528.054810,853.978333 
	C532.183044,853.704651 534.556702,854.441833 534.425659,859.547852 
	C534.101257,872.190979 534.320435,884.848022 534.324341,897.999390 
z"/>
<path fill="#000000" opacity="1.000000" stroke="none" 
	d="
M422.647766,814.997192 
	C422.649414,800.031128 422.623199,785.564270 422.667938,771.097534 
	C422.684875,765.623474 423.060181,765.622864 431.027283,765.671814 
	C435.289948,765.698059 435.675568,767.624817 435.623657,771.277161 
	C435.364044,789.555420 435.291016,807.839478 435.471527,826.118347 
	C435.513733,830.391785 434.119080,831.718018 430.062347,831.355713 
	C426.390625,831.027771 421.962494,832.365417 422.584167,825.966614 
	C422.920258,822.507141 422.646637,818.988464 422.647766,814.997192 
z"/>
<path fill="#000000" opacity="1.000000" stroke="none" 
	d="
M231.999390,349.693207 
	C238.697250,350.320679 245.150604,348.388641 251.144073,351.882599 
	C237.106918,353.857300 223.058060,353.169098 208.982712,353.241516 
	C208.760956,349.044250 211.292862,349.747437 213.065002,349.721527 
	C219.208710,349.631805 225.354599,349.692596 231.999390,349.693207 
z"/>
<path fill="#000000" opacity="1.000000" stroke="none" 
	d="
M812.639771,349.684326 
	C814.999390,349.755463 817.098877,349.369171 818.214600,351.632965 
	C815.354858,353.581390 783.903198,354.268555 777.145020,352.604095 
	C777.481506,349.102142 780.197449,349.743286 782.334106,349.729065 
	C792.284973,349.662903 802.236572,349.691467 812.639771,349.684326 
z"/>
<path fill="#000000" opacity="1.000000" stroke="none" 
	d="
M479.525085,416.288940 
	C479.570526,390.284637 479.129120,364.674713 479.463593,339.052246 
	C479.932831,303.105133 479.575012,267.147522 479.643250,231.194565 
	C479.654266,225.382523 476.127289,221.661133 472.370911,218.108597 
	C467.895020,213.875610 463.250183,209.813248 458.547577,205.831650 
	C456.463104,204.066818 455.527191,202.130920 455.601440,199.368317 
	C455.762512,193.374100 455.775879,187.368546 455.593781,181.375397 
	C455.491791,178.019348 456.550262,176.607269 460.114197,176.615540 
	C495.604736,176.697906 531.095642,176.690445 566.586243,176.606476 
	C570.071106,176.598236 571.525574,177.890915 571.147888,181.310211 
	C571.093262,181.805374 571.035706,182.321045 571.111206,182.806763 
	C573.291443,196.836456 569.363708,207.906494 556.633789,215.616760 
	C549.046448,220.212296 547.049561,227.650040 547.090393,236.645126 
	C547.404541,305.791687 547.357483,374.940704 547.112000,444.087830 
	C547.085205,451.624420 549.670532,457.248047 554.775879,462.219299 
	C559.192017,466.519440 563.510620,470.923615 568.026550,475.115662 
	C570.014099,476.960693 570.823792,478.839386 570.786987,481.637482 
	C570.586182,496.906616 570.518372,512.180542 570.688904,527.449585 
	C570.736450,531.710022 569.524292,533.322815 565.053406,533.303894 
	C530.729797,533.158936 496.405396,533.222839 462.081238,533.218140 
	C455.951294,533.217346 455.674194,532.956238 455.665344,526.684753 
	C455.644684,512.021545 455.772705,497.356689 455.571381,482.696167 
	C455.517792,478.792786 456.833221,476.084595 459.756714,473.676544 
	C463.093292,470.928223 466.070404,467.747406 469.358551,464.935577 
	C477.019562,458.384247 480.201141,450.225159 479.562103,440.127747 
	C479.069397,432.341644 479.507812,424.496674 479.525085,416.288940 
z"/>
<path fill="#000000" opacity="1.000000" stroke="none" 
	d="
M397.529816,258.425659 
	C398.516663,259.100494 399.143372,259.750519 399.903412,260.010193 
	C410.013458,263.464386 410.960968,271.133453 410.659302,280.513153 
	C410.071533,298.789368 410.572083,317.100128 410.590973,335.396606 
	C410.595825,340.116943 412.305634,343.553131 416.727051,345.876953 
	C421.431061,348.349243 425.632996,351.785889 430.360718,354.201508 
	C434.936310,356.539459 436.491882,359.599915 436.472687,364.813751 
	C436.273773,418.962341 436.317657,473.112000 436.439575,527.261047 
	C436.449097,531.481812 435.388824,533.361267 430.879425,533.192505 
	C427.404022,533.062317 426.377289,531.963806 426.414124,528.425598 
	C426.528229,517.446960 426.237213,506.463440 426.048645,495.482758 
	C425.976929,491.306641 417.295990,484.038635 413.418243,484.996185 
	C410.765289,485.651367 410.633270,488.142120 410.568329,490.270721 
	C410.405975,495.590302 410.425690,500.916290 410.423676,506.239685 
	C410.420807,513.724609 410.249603,521.218872 410.577728,528.690430 
	C410.743988,532.476440 409.110229,533.215027 405.891235,533.226746 
	C402.574188,533.238770 400.558380,532.614197 400.610077,528.574646 
	C400.780670,515.247009 400.680969,501.915863 400.672821,488.586090 
	C400.669159,482.574646 394.347717,476.156738 388.455963,476.280914 
	C384.883728,476.356201 385.376221,479.156891 385.370483,481.409882 
	C385.332336,496.405853 385.369324,511.402039 385.325531,526.398010 
	C385.319855,528.342102 385.838379,530.403198 384.594177,532.192566 
	C378.040741,532.063477 375.669495,529.872437 375.657471,523.843750 
	C375.626526,508.348206 375.642975,492.852600 375.617218,477.357056 
	C375.605957,470.586914 370.676086,465.551544 363.909882,465.246216 
	C360.398560,465.087799 360.356049,467.430969 360.357208,469.906097 
	C360.364136,484.568848 360.369720,499.231628 360.343628,513.894348 
	C360.340179,515.833252 360.685577,517.851196 359.658569,519.734619 
	C356.373810,519.963135 354.290527,517.734436 351.951874,516.350647 
	C335.329620,506.514801 318.889099,496.366760 302.149658,486.737152 
	C297.171600,483.873444 295.488007,480.563751 295.511047,474.846863 
	C295.723541,422.044098 295.618713,369.240051 295.601440,316.436371 
	C295.596954,302.784637 295.644073,289.132172 295.494537,275.481934 
	C295.469818,273.223724 296.057495,271.738678 297.811127,270.390961 
	C314.714081,257.400513 331.603119,244.391602 348.430389,231.303452 
	C351.257660,229.104416 353.515656,229.959732 356.107147,231.647552 
	C369.782990,240.554489 383.517487,249.371307 397.529816,258.425659 
M383.033203,280.966675 
	C378.933838,288.411926 380.907227,296.206482 387.911530,300.204071 
	C390.499756,301.681274 393.075470,303.183258 395.702698,304.588257 
	C397.019928,305.292633 398.415497,305.937653 399.761078,304.486633 
	C401.342682,302.781036 401.418152,291.062042 399.399811,289.744415 
	C394.337341,286.439484 389.954834,281.879974 383.033203,280.966675 
M367.688843,302.720154 
	C361.528107,299.970459 360.401489,300.660278 360.372803,307.244385 
	C360.362732,309.562286 360.440033,311.880554 360.433167,314.198517 
	C360.427277,316.184814 361.142975,317.738403 362.930908,318.716064 
	C366.123749,320.461914 369.305450,322.228485 372.513733,323.945465 
	C374.476837,324.996063 375.937134,324.863953 376.579163,322.307037 
	C378.825714,313.360046 376.419647,307.685791 367.688843,302.720154 
M371.945557,357.189667 
	C374.475067,357.726898 375.563141,355.911652 375.444397,354.128265 
	C375.127899,349.374176 377.907776,343.892181 373.568115,340.028595 
	C370.299133,337.118256 366.186737,335.145294 361.837738,334.044006 
	C357.742767,342.811035 360.025970,350.657074 367.789368,355.052917 
	C368.940399,355.704620 370.119568,356.306580 371.945557,357.189667 
M373.888336,273.745361 
	C371.809387,272.374176 369.770599,270.936829 367.643066,269.645691 
	C363.324799,267.025085 361.412323,267.970764 360.609863,273.028870 
	C359.241089,281.656708 364.501099,289.044525 373.242645,290.858398 
	C374.735382,291.168121 376.341187,291.065857 376.320679,289.423645 
	C376.256744,284.302490 378.550903,278.841522 373.888336,273.745361 
M360.350403,373.704468 
	C360.120819,384.213715 360.233459,383.546173 371.129242,388.942169 
	C373.849854,390.289551 375.162964,389.138580 375.673706,386.427795 
	C377.433807,377.085724 375.719818,373.359131 367.550140,368.869232 
	C361.464569,365.524719 360.517181,366.047211 360.350403,373.704468 
M370.877167,435.724091 
	C368.918732,434.807983 366.973206,433.862701 364.997620,432.985199 
	C363.480896,432.311432 362.085175,432.388153 361.022980,433.882416 
	C358.285248,437.733795 360.948364,448.963440 365.105652,451.074463 
	C375.766388,456.487793 375.739868,456.475586 375.700592,444.162048 
	C375.689453,440.673096 375.616089,437.393372 370.877167,435.724091 
M400.732635,331.185730 
	C400.213318,327.585144 402.328003,323.307129 398.398895,320.587769 
	C395.547150,318.614105 392.453613,316.980316 389.416077,315.287933 
	C387.409210,314.169769 386.061981,314.535919 385.458374,317.065887 
	C383.231659,326.398499 385.408905,331.266022 394.012604,335.786224 
	C399.113525,338.466125 400.110779,337.910004 400.732635,331.185730 
M360.346344,409.355408 
	C360.410278,416.164246 364.452759,420.708649 371.283478,421.721802 
	C373.717529,422.082825 375.046051,421.085968 375.587402,418.716492 
	C377.648560,409.695190 374.209564,403.454834 365.563507,400.711273 
	C362.607666,399.773315 360.600128,400.533783 360.385773,403.968353 
	C360.292572,405.462006 360.352325,406.965210 360.346344,409.355408 
M385.352966,423.078613 
	C385.762390,427.800323 392.494598,433.707031 397.292786,433.580536 
	C398.375671,433.551971 399.184875,433.092590 399.832153,432.265320 
	C402.118561,429.343292 400.689667,418.178894 397.475861,416.316711 
	C394.161285,414.396149 390.846588,410.023987 387.080688,411.972992 
	C383.704285,413.720367 385.735565,418.674255 385.352966,423.078613 
M385.350983,385.864258 
	C384.139587,393.214203 386.486145,398.437866 394.098999,400.527954 
	C394.411591,400.613770 394.688416,400.825958 394.986176,400.970520 
	C398.457642,402.655792 400.285095,401.610626 400.681915,397.729950 
	C401.698334,387.790222 400.767487,385.989685 391.845856,381.269135 
	C386.625061,378.506744 385.972198,378.881653 385.350983,385.864258 
M395.760101,350.807465 
	C392.803680,349.404877 390.250336,347.068970 386.582611,346.763123 
	C384.333710,350.533844 385.541107,354.609222 385.413086,358.478149 
	C385.270569,362.783478 393.907043,369.510071 398.125305,368.563965 
	C398.847961,368.401917 399.663696,367.841064 400.071625,367.223480 
	C402.441010,363.636414 400.136780,353.845428 395.760101,350.807465 
M425.599701,464.266785 
	C424.305206,460.877716 417.372131,456.003113 414.113617,456.197327 
	C411.580933,456.348267 410.676941,458.041046 410.662628,460.224091 
	C410.645264,462.868866 410.850525,465.519073 411.047028,468.160400 
	C411.369659,472.497833 418.900604,478.409485 423.129883,477.731628 
	C425.302216,477.383423 425.608246,475.785126 425.635956,474.057098 
	C425.683746,471.076355 425.642029,468.094177 425.599701,464.266785 
M392.186096,445.343018 
	C386.348755,442.424377 385.442383,442.969574 385.353790,449.477448 
	C385.331299,451.130615 385.332123,452.784546 385.353424,454.437714 
	C385.414581,459.190094 393.499512,465.773712 398.091400,464.838867 
	C400.130463,464.423737 400.513397,462.956970 400.686371,461.172516 
	C401.350006,454.326935 400.752991,448.168884 392.186096,445.343018 
M418.739716,412.583893 
	C421.028076,413.598267 423.565399,416.112671 425.363220,412.168854 
	C428.701355,404.846069 422.664398,393.736176 414.830994,392.506866 
	C412.852692,392.196442 411.756104,393.083588 411.072388,394.909058 
	C408.650330,401.375946 411.789917,409.198608 418.739716,412.583893 
M417.964264,380.531708 
	C424.438293,384.081879 425.623322,383.383820 425.705902,375.965912 
	C425.718872,374.800232 425.726196,373.634308 425.716553,372.468658 
	C425.675201,367.467133 419.226898,360.962555 414.260315,360.882904 
	C412.680725,360.857574 411.869507,361.721130 411.341187,363.101624 
	C408.995758,369.230225 411.690704,376.967957 417.964264,380.531708 
M424.326599,430.470428 
	C423.951263,430.141815 423.628448,429.690125 423.192261,429.504028 
	C419.663116,427.998260 416.194763,423.372009 412.624451,425.738159 
	C408.923828,428.190582 411.143280,433.472046 411.293518,437.501770 
	C411.413940,440.732056 419.527039,446.830048 422.694672,446.446045 
	C424.422821,446.236481 425.481049,445.020691 425.516235,443.423401 
	C425.606842,439.306641 426.481812,435.117523 424.326599,430.470428 
M312.842590,357.400909 
	C310.775818,358.780396 308.601440,360.027496 306.681671,361.587860 
	C305.484924,362.560516 304.933350,364.160156 305.906982,365.626526 
	C306.936249,367.176666 308.303589,366.284454 309.427032,365.652435 
	C317.673187,361.013397 325.890106,356.322388 334.126556,351.666016 
	C336.040833,350.583771 337.540039,349.109558 336.406677,346.874634 
	C335.143280,344.383270 333.132843,346.005249 331.702240,346.779907 
	C325.572479,350.099243 319.540436,353.598877 312.842590,357.400909 
M306.401520,454.066437 
	C305.682770,459.007721 308.773102,457.891205 311.344391,457.004547 
	C318.420990,454.564453 325.445801,451.973053 332.475220,449.398254 
	C333.874664,448.885681 335.297363,448.309967 336.182098,446.983887 
	C336.882690,445.933777 336.973633,444.785400 336.408722,443.665863 
	C335.772339,442.404785 334.575378,442.159210 333.413147,442.595306 
	C324.424591,445.968475 314.948334,448.144318 306.401520,454.066437 
M329.655365,418.134277 
	C330.845398,417.547302 332.076019,417.029175 333.216217,416.357574 
	C335.025909,415.291626 337.723541,414.343140 336.459290,411.657806 
	C335.198914,408.980652 332.674438,410.345917 330.792267,411.184448 
	C323.673309,414.355957 316.636139,417.710602 309.531982,420.916168 
	C306.533356,422.269165 305.275055,424.353058 306.252777,428.408997 
	C313.965607,425.043060 321.478973,421.764160 329.655365,418.134277 
M324.914032,382.455505 
	C319.741974,385.091064 314.572937,387.732574 309.396606,390.359772 
	C306.638763,391.759460 304.728851,393.494659 306.554352,397.075500 
	C311.494812,396.555176 315.141785,393.392487 319.363251,391.640076 
	C324.723969,389.414734 329.952637,386.890350 334.813202,383.679504 
	C336.317688,382.685638 337.412292,381.398468 336.244781,379.548920 
	C335.262543,377.992950 333.699829,378.132996 332.255096,378.803528 
	C330.000488,379.849915 327.805664,381.025146 324.914032,382.455505 
M320.252594,327.687714 
	C325.856171,323.828278 332.355957,321.055054 337.117523,315.425018 
	C334.162079,313.562561 332.332214,313.996460 330.788177,314.994385 
	C323.101166,319.962799 315.475433,325.026672 307.856537,330.099609 
	C305.684204,331.546021 304.586670,333.358063 306.638794,336.221588 
	C311.606323,334.409698 315.427277,330.904053 320.252594,327.687714 
M326.090332,292.549316 
	C328.414581,290.935181 330.779999,289.376312 333.048096,287.686798 
	C334.467682,286.629303 336.639526,285.475983 335.357727,283.378052 
	C333.987823,281.135834 332.102325,282.727234 330.650970,283.731232 
	C323.264343,288.840942 315.906830,293.993225 308.574402,299.180511 
	C306.541840,300.618439 305.417511,302.521942 306.403809,305.756195 
	C313.281982,301.957916 319.244659,297.226776 326.090332,292.549316 
z"/>
<path fill="#000000" opacity="1.000000" stroke="none" 
	d="
M609.311768,285.920959 
	C613.746216,286.034027 616.010620,289.311646 618.829041,291.480438 
	C623.779175,295.289642 627.999146,295.811554 634.237427,293.081665 
	C642.855652,289.310303 646.351074,283.837128 646.517700,274.869080 
	C646.640991,268.235382 647.700012,267.686707 654.460266,267.661102 
	C660.290100,267.639038 666.122559,267.738922 671.948975,267.590851 
	C675.213562,267.507935 676.964966,268.808319 677.327209,272.065247 
	C677.473145,273.377289 678.067993,274.677948 678.019043,275.967133 
	C677.588135,287.315002 684.789551,292.339386 694.075928,295.908661 
	C696.901184,296.994537 699.099304,296.936829 701.427795,294.979370 
	C704.610046,292.304108 707.983643,289.857635 711.201599,287.223083 
	C713.071411,285.692230 714.824341,285.808807 716.615479,287.210022 
	C722.821960,292.065491 727.570435,298.350098 732.977783,303.987885 
	C734.282471,305.348236 734.116333,307.078430 733.235840,308.646027 
	C732.504639,309.947998 731.643921,311.181793 730.784790,312.406647 
	C724.183838,321.816803 724.202271,325.947540 730.560608,335.698822 
	C732.331299,338.414368 735.059753,338.818054 737.752319,339.648682 
	C749.377014,343.234802 749.463013,340.304718 749.343811,354.432617 
	C749.307312,358.763153 749.315430,363.094269 749.337830,367.424957 
	C749.352966,370.342010 748.252930,372.175720 745.073486,372.438049 
	C743.263245,372.587402 741.490540,373.246796 739.682007,373.352539 
	C733.621094,373.706970 730.527100,376.907990 727.352722,382.229797 
	C721.675476,391.747681 727.514160,397.618378 732.262207,403.879089 
	C735.369324,407.976135 735.187805,410.711670 731.482971,414.031555 
	C727.022949,418.028137 722.820312,422.322601 718.647095,426.624725 
	C716.009094,429.344208 713.489014,430.028198 710.473389,427.276947 
	C709.376099,426.275818 708.087708,425.447662 706.790649,424.708984 
	C703.528809,422.851501 700.994812,418.233582 697.151855,419.237091 
	C690.941101,420.858856 684.979187,423.852905 679.728455,427.646515 
	C677.307251,429.395874 677.726135,433.131622 677.424377,436.015167 
	C676.135803,448.326843 676.222046,448.338654 663.716797,448.331360 
	C659.885803,448.329132 656.054382,448.336914 652.223938,448.284546 
	C649.183655,448.242950 647.157104,446.915771 646.651062,443.712463 
	C646.496094,442.731598 645.897217,441.766083 645.945618,440.816193 
	C646.564209,428.690735 639.002991,423.257629 628.978699,419.603088 
	C626.558472,418.720734 624.608398,418.510437 622.476685,420.092651 
	C619.268250,422.473999 615.913818,424.658173 612.695923,427.027405 
	C610.175415,428.883179 607.918945,428.958466 605.560913,426.718201 
	C600.733887,422.132294 595.847717,417.607727 590.937256,413.111115 
	C588.334534,410.727783 588.333984,408.409912 590.569275,405.745941 
	C593.135498,402.687531 595.533386,399.486206 597.963745,396.315857 
	C599.955811,393.717316 600.539429,390.944092 598.784668,387.956085 
	C598.616821,387.670197 598.432922,387.366760 598.371399,387.049225 
	C596.342651,376.575226 589.657227,372.649384 579.453308,373.258362 
	C576.307068,373.446136 573.956665,371.823608 573.731140,368.305206 
	C573.264343,361.022766 572.322205,353.779022 573.511047,346.427185 
	C574.062378,343.017670 575.636414,341.400421 578.737610,340.757141 
	C580.201477,340.453491 581.655884,340.100586 583.125610,339.829712 
	C593.018311,338.006378 597.678101,333.323181 599.501709,323.502380 
	C599.836975,321.696777 599.405701,320.273834 598.331665,318.863373 
	C596.213318,316.081512 594.309875,313.126465 592.073792,310.446381 
	C589.334961,307.163727 589.330994,304.286285 592.528931,301.346313 
	C598.039185,296.280457 603.477539,291.136353 609.311768,285.920959 
M655.554260,338.059143 
	C659.645813,332.195526 663.775391,326.357849 667.806885,320.453247 
	C669.102844,318.555176 670.805115,316.456940 669.367432,314.062439 
	C668.059814,311.884460 665.518127,311.297729 663.186401,311.521210 
	C654.043518,312.397644 645.026855,313.934174 637.114868,319.049927 
	C623.965515,327.552032 618.047485,340.074615 616.459961,355.329346 
	C614.552429,373.659088 626.934509,394.456116 645.445679,400.872284 
	C648.412109,394.008820 649.925598,386.699036 651.751831,379.494904 
	C653.333984,373.253357 652.144043,371.750305 645.781372,371.401398 
	C641.371948,371.159668 636.894897,371.933319 631.382263,370.513123 
	C639.557556,359.531830 647.337708,349.081238 655.554260,338.059143 
M691.025269,393.531219 
	C703.001892,384.004883 707.699646,371.272400 707.890930,356.316071 
	C708.138794,336.937500 695.556763,325.765228 682.351318,314.897400 
	C679.891357,315.839600 679.592773,317.862518 679.100281,319.799561 
	C677.175842,327.368927 675.271118,334.943878 673.260498,342.490540 
	C671.735718,348.213654 673.379517,350.474213 679.436768,350.730560 
	C682.848511,350.874908 686.338440,350.387329 690.080139,351.673431 
	C688.707336,355.030640 686.710815,357.433777 684.738647,359.832123 
	C675.215210,371.413696 666.363892,383.498749 657.825500,395.814331 
	C656.762512,397.347626 654.804260,398.852631 656.097595,401.106964 
	C657.175415,402.985718 659.255005,402.655579 661.046631,402.832672 
	C672.068481,403.922363 681.675293,400.337219 691.025269,393.531219 
z"/>
</svg>